PathFileType	4	(X/Y/Z)	 s07c0302.trc
DataRate	CameraRate	NumFrames	NumMarkers	Units	OrigDataRate	OrigDataStartFrame	OrigNumFrames
200	200	4	48	mm	200	251	2000
Frame#	Time	racr			lacr			c7			jug			rlel			rdr			llel			ldr			s2			lic			ric			lasi			rasi			rpsi			lpsi			rgt			lgt			rth1			rth2			rth3			rth4			rlfc			rmfc			rsh1			rsh2			rsh3			rsh4			rlmal			rcal			rtoe			rmt5			lth1			lth2			lth4			lth3			llfc			lmfc			lsh1			lsh2			lsh3			lsh4			llmal			lcal			ltoe			lmt5			SBIKE			LBIKE			RBIKE			
		X1	Y1	Z1	X2	Y2	Z2	X3	Y3	Z3	X4	Y4	Z4	X5	Y5	Z5	X6	Y6	Z6	X7	Y7	Z7	X8	Y8	Z8	X9	Y9	Z9	X10	Y10	Z10	X11	Y11	Z11	X12	Y12	Z12	X13	Y13	Z13	X14	Y14	Z14	X15	Y15	Z15	X16	Y16	Z16	X17	Y17	Z17	X18	Y18	Z18	X19	Y19	Z19	X20	Y20	Z20	X21	Y21	Z21	X22	Y22	Z22	X23	Y23	Z23	X24	Y24	Z24	X25	Y25	Z25	X26	Y26	Z26	X27	Y27	Z27	X28	Y28	Z28	X29	Y29	Z29	X30	Y30	Z30	X31	Y31	Z31	X32	Y32	Z32	X33	Y33	Z33	X34	Y34	Z34	X35	Y35	Z35	X36	Y36	Z36	X37	Y37	Z37	X38	Y38	Z38	X39	Y39	Z39	X40	Y40	Z40	X41	Y41	Z41	X42	Y42	Z42	X43	Y43	Z43	X44	Y44	Z44	X45	Y45	Z45	X46	Y46	Z46	X47	Y47	Z47	X48	Y48	Z48	
251	1.2550	493.643462	1327.918399	-68.834342	473.141160	1326.795390	-357.736308	474.296035	1356.227094	-215.917204	415.254246	1226.098478	-213.985351	468.690053	1015.361922	84.180583	710.660162	915.024708	-37.953326	470.742399	1034.538244	-518.561282	719.184784	916.345828	-409.993111	-129.929662	1224.856970	-236.672926	33.792018	1230.139955	-351.534046	44.048540	1215.953816	-79.626572	58.143795	1151.654704	-349.098787	39.452933	1162.678081	-96.646211	-95.603062	1255.939814	-182.927058	-75.447040	1264.952276	-289.431716	-42.920827	1129.538296	-34.354495	-42.393256	1106.961169	-411.160795	94.343548	1063.911553	-37.351233	179.690478	1045.786828	-48.426260	246.525360	992.420010	-45.617497	192.781728	1075.491578	-66.036927	363.688533	909.160937	-81.527140	358.213802	894.953331	-187.978498	317.973018	772.578333	-59.292251	308.152389	684.844067	-80.626006	261.573756	612.801079	-75.893123	324.206810	684.973904	-116.568806	208.445755	486.300746	-79.398433	142.849526	442.870140	-108.516617	433.252951	431.655280	-119.020388	356.012869	395.181164	-49.290115	14.193246	999.217056	-419.247854	84.749066	946.328323	-422.667801	113.394300	968.262843	-414.895028	119.812005	864.385050	-420.355263	214.962972	707.489780	-388.688199	202.787028	691.385738	-291.142491	123.648431	587.179157	-410.185276	87.335297	511.878148	-389.014656	16.964882	456.438036	-398.345269	89.727335	514.100552	-347.354292	-94.750737	340.404137	-376.771828	-152.722647	327.705920	-362.372723	128.980003	261.762233	-355.672848	46.536944	250.690109	-420.996276	-259.618154	968.797334	-233.070774	-75.874655	83.435263	-438.575038	-83.004627	79.508051	-41.041220	
252	1.2600	493.533481	1327.994203	-68.808352	473.097904	1326.960754	-357.682373	474.170818	1356.411888	-215.848640	415.118468	1226.259996	-214.019996	468.641986	1015.404207	84.121942	710.674356	915.043322	-37.991546	470.839865	1034.705140	-518.544200	719.192495	916.338775	-409.980312	-130.009381	1224.834610	-236.702007	33.688912	1230.149165	-351.561665	43.617988	1215.733657	-79.040748	58.077818	1151.686046	-349.106602	39.747981	1162.871696	-96.210890	-95.473771	1256.039947	-183.078773	-75.553768	1264.942966	-289.475026	-42.978129	1129.527331	-34.364204	-42.440384	1106.944587	-411.174916	94.303792	1063.960957	-37.373674	179.647218	1045.867097	-48.455810	246.525378	992.516426	-45.624094	192.741162	1075.546687	-66.109743	363.670459	909.368354	-81.458453	358.233682	895.073021	-187.995511	317.998669	772.713918	-59.304040	308.151269	684.967007	-80.638817	261.628725	612.906756	-75.905610	324.234932	685.071438	-116.574619	208.459916	486.421734	-79.393415	142.850738	443.104453	-108.501702	433.252265	431.677636	-119.014466	356.015295	395.250909	-49.305385	14.125103	999.188313	-419.271576	84.686727	946.276762	-422.662127	113.314339	968.262471	-414.949061	119.716470	864.360190	-420.355923	214.861080	707.467185	-388.705885	202.705642	691.363515	-291.154223	123.594534	587.116448	-410.194271	87.284656	511.846727	-389.015202	16.992007	456.256132	-397.907307	89.692446	514.038213	-347.359324	-94.746906	340.328065	-376.777224	-152.723908	327.594402	-362.360847	128.999611	261.731849	-355.667250	46.551474	250.606648	-421.015836	-259.637100	968.791940	-233.054472	-75.882308	83.431434	-438.569579	-82.971881	79.451170	-41.033592	
253	1.2650	493.413642	1328.063629	-68.779527	473.040762	1327.122568	-357.624529	474.053687	1356.521197	-215.847283	414.999109	1226.408116	-214.005401	468.619852	1015.442577	84.068030	710.661537	915.078259	-37.992706	470.923984	1034.869691	-518.547873	719.208082	916.377045	-409.982874	-130.087528	1224.813608	-236.726596	33.595040	1230.202842	-351.596283	43.509113	1215.753939	-79.051772	58.022678	1151.717685	-349.115158	39.685937	1162.899968	-96.231842	-95.579502	1256.018613	-183.082774	-75.659673	1264.930780	-289.487737	-43.031425	1129.524478	-34.388760	-42.545950	1106.923137	-411.186723	94.282557	1064.014815	-37.400624	179.632746	1045.931973	-48.479570	246.513013	992.618639	-45.650815	192.709252	1075.636339	-66.131306	363.679679	909.527103	-81.470858	358.258842	895.167046	-187.972270	318.029640	772.852657	-59.301683	308.087964	685.179032	-80.670626	261.651416	613.064977	-75.885567	324.260648	685.196591	-116.583808	208.493512	486.563598	-79.371188	142.875271	443.252769	-108.530286	433.252446	431.690177	-119.026190	355.982502	395.316981	-49.291764	14.037071	999.171995	-419.273842	84.615978	946.231550	-422.683183	113.235334	968.197059	-414.965431	119.634582	864.317371	-420.361599	214.749709	707.434015	-388.743987	202.619848	691.313444	-291.198676	123.521316	587.066650	-410.229410	87.226450	511.790765	-389.018747	16.923433	456.204562	-397.893490	89.644709	514.005213	-347.360841	-94.798655	340.201947	-376.775450	-152.752707	327.442215	-362.311232	129.001073	261.703465	-355.668958	46.552111	250.546599	-421.019930	-259.643840	968.804336	-233.072999	-75.888017	83.447183	-438.545196	-83.010106	79.502625	-41.039731	
254	1.2700	493.297885	1328.105155	-68.765830	472.992902	1327.261176	-357.579512	473.974195	1356.656837	-215.809514	414.919112	1226.516958	-213.995840	468.575458	1015.463752	84.027636	710.669079	915.080223	-38.004622	470.998970	1035.016602	-518.560739	719.206255	916.374428	-409.974324	-130.174941	1224.770073	-236.737307	33.564128	1230.238278	-351.651146	43.746402	1216.037621	-79.657277	57.950671	1151.738257	-349.126235	39.624083	1162.901562	-96.225125	-95.675913	1255.998788	-183.101448	-75.772949	1264.911373	-289.513445	-43.078701	1129.525456	-34.379842	-42.642333	1106.868834	-411.163797	94.268453	1064.066896	-37.410225	179.627680	1046.015855	-48.499233	246.505886	992.738895	-45.658727	192.664636	1075.713277	-66.159351	363.767600	909.649907	-81.567367	358.310882	895.266740	-187.941614	318.054656	772.988774	-59.298855	308.120973	685.331499	-80.678660	261.701227	613.175299	-75.895307	324.295086	685.308181	-116.566961	208.528329	486.710505	-79.377286	142.892793	443.402738	-108.545482	433.250930	431.710500	-119.015285	355.982971	395.388061	-49.299868	13.950314	999.128492	-419.302287	84.533565	946.192205	-422.679250	113.153697	968.170780	-414.960144	119.548420	864.267151	-420.347047	214.648409	707.411628	-388.800208	202.508978	691.282218	-291.228525	123.436685	587.007886	-410.224855	87.149715	511.746302	-389.044848	16.876352	456.144121	-397.887693	89.618116	513.981932	-347.380612	-94.795574	340.128728	-376.779497	-152.760091	327.305339	-362.318953	129.007566	261.675925	-355.672832	46.556402	250.498148	-421.028058	-259.643672	968.790754	-233.066808	-75.879391	83.431960	-438.567192	-82.992863	79.483544	-41.055746	
